<svg width="1919" height="896" xmlns="http://www.w3.org/2000/svg"><path d="M-87.439-94.382l-14.91 215.428 136.463-32.873z" fill="#853593" stroke="#853593"/><path d="M-87.439-94.382l121.553 182.555 12.09-159.374z" fill="#7d248a" stroke="#7d248a"/><path d="M-87.439-94.382l133.643 23.181 221.176-60.644z" fill="#752081" stroke="#752081"/><path d="M46.205-71.201l-12.09 159.374 179.27 24.206z" fill="#914da1" stroke="#914da1"/><path d="M46.205-71.201l167.179 183.58 53.997-244.224z" fill="#893d98" stroke="#893d98"/><path d="M267.38-131.845l-53.997 244.224 179.783-161.126z" fill="#944ea3" stroke="#944ea3"/><path d="M267.38-131.845l125.786 83.098 93.337-34.782z" fill="#8f489b" stroke="#8f489b"/><path d="M267.38-131.845l219.123 48.316 294.707-14.97z" fill="#9756a1" stroke="#9756a1"/><path d="M267.38-131.845l513.83 33.346 380.462-36.108z" fill="#a36ba8" stroke="#a36ba8"/><path d="M393.167-48.747l-179.783 161.126 164.322-31.488z" fill="#a46db5" stroke="#a46db5"/><path d="M393.167-48.747l-15.461 129.639 161.937-16.999z" fill="#aa73ba" stroke="#aa73ba"/><path d="M393.167-48.747l146.476 112.64-53.14-147.422z" fill="#a363b0" stroke="#a363b0"/><path d="M486.503-83.529l53.14 147.422 136.513-132z" fill="#a969b4" stroke="#a969b4"/><path d="M486.503-83.529l189.652 15.423 105.054-30.392z" fill="#a563ad" stroke="#a563ad"/><path d="M676.156-68.107l-136.513 132 114.711 22.609z" fill="#b884c3" stroke="#b884c3"/><path d="M676.156-68.107l-21.801 154.609 216.733-25.461z" fill="#bf8ec7" stroke="#bf8ec7"/><path d="M676.156-68.107l194.932 129.148-89.877-159.54z" fill="#b27ab8" stroke="#b27ab8"/><path d="M781.21-98.499l89.877 159.54 57.394-101.719z" fill="#b182b7" stroke="#b182b7"/><path d="M781.21-98.499l147.271 57.822 233.191-93.93z" fill="#a378a4" stroke="#a378a4"/><path d="M928.481-40.677l-57.394 101.719 163.126-20.515z" fill="#b798bd" stroke="#b798bd"/><path d="M928.481-40.677l105.732 81.204 127.459-175.134z" fill="#a37da6" stroke="#a37da6"/><path d="M1161.673-134.607l-127.459 175.134 40.567 5.374z" fill="#a286a6" stroke="#a286a6"/><path d="M1161.673-134.607l-86.892 180.508 194.708-26.919z" fill="#99809d" stroke="#99809d"/><path d="M1161.673-134.607l107.815 153.59 52.665-94.709z" fill="#866a8a" stroke="#866a8a"/><path d="M1161.673-134.607l160.48 58.88 136.096 3.275z" fill="#76637b" stroke="#76637b"/><path d="M1161.673-134.607l296.577 62.156 272.724-36.608z" fill="#5f5667" stroke="#5f5667"/><path d="M1161.673-134.607l569.3 25.547 200.666-9.18z" fill="#484456" stroke="#484456"/><path d="M1322.153-75.727l-52.665 94.709 130.272 106.711z" fill="#898392" stroke="#898392"/><path d="M1322.153-75.727l77.607 201.42 58.489-198.145z" fill="#7a7283" stroke="#7a7283"/><path d="M1458.249-72.452l-58.489 198.145 213.532-14.643z" fill="#777f86" stroke="#777f86"/><path d="M1458.249-72.452l155.043 183.502-31.015-163.091z" fill="#646274" stroke="#646274"/><path d="M1458.249-72.452l124.029 20.411 148.695-57.019z" fill="#524661" stroke="#524661"/><path d="M1582.278-52.041l31.015 163.091 77.194-75.364z" fill="#616675" stroke="#616675"/><path d="M1582.278-52.041l108.208 87.728 40.487-144.747z" fill="#4e4762" stroke="#4e4762"/><path d="M1730.973-109.06l-40.487 144.747 236.389 54.65z" fill="#484c62" stroke="#484c62"/><path d="M1730.973-109.06l195.902 199.397 4.764-208.577z" fill="#3e3050" stroke="#3e3050"/><path d="M1931.639-118.24l-4.764 208.577 79.613-149.762z" fill="#412b4c" stroke="#412b4c"/><path d="M2006.488-59.425l-79.613 149.762 147.29-63.879z" fill="#4a3852" stroke="#4a3852"/><path d="M-102.349 121.046l9.35 589.774 8.891-307.704z" fill="#b487b8" stroke="#b487b8"/><path d="M-102.349 121.046l18.242 282.069 51.647-218.631z" fill="#ab70b8" stroke="#ab70b8"/><path d="M-102.349 121.046l69.889 63.438 66.574-96.311z" fill="#9858a8" stroke="#9858a8"/><path d="M34.114 88.173l-66.574 96.311 158.345-12.27z" fill="#a168b2" stroke="#a168b2"/><path d="M34.114 88.173l91.771 84.041 87.499-59.835z" fill="#a26db5" stroke="#a26db5"/><path d="M213.384 112.379l-87.499 59.835 137.951 3.807z" fill="#ae81c1" stroke="#ae81c1"/><path d="M213.384 112.379l50.452 63.642 113.87-95.13z" fill="#ae83c1" stroke="#ae83c1"/><path d="M377.706 80.891l-113.87 95.13 107.614 95.319z" fill="#be98d0" stroke="#be98d0"/><path d="M377.706 80.891l-6.257 190.449 192.717-11.626z" fill="#cdabdc" stroke="#cdabdc"/><path d="M377.706 80.891l186.461 178.823-24.524-195.821z" fill="#c29dd3" stroke="#c29dd3"/><path d="M539.643 63.893l24.524 195.821 90.188-173.212z" fill="#caa7d8" stroke="#caa7d8"/><path d="M654.355 86.502l-90.188 173.212 131.594-91.725z" fill="#d5b6e2" stroke="#d5b6e2"/><path d="M654.355 86.502l41.407 81.487 175.326-106.948z" fill="#cdabd8" stroke="#cdabd8"/><path d="M871.088 61.041l-175.326 106.948 96.622 61.672z" fill="#d6bcdf" stroke="#d6bcdf"/><path d="M871.088 61.041l-78.704 168.62 143.056-18.811z" fill="#d6c5de" stroke="#d6c5de"/><path d="M871.088 61.041l64.352 149.809 98.774-170.324z" fill="#c7b7cf" stroke="#c7b7cf"/><path d="M1034.213 40.527l-98.774 170.324 139.341-164.949z" fill="#bfb3c7" stroke="#bfb3c7"/><path d="M1074.78 45.901l-139.341 164.949 225.171-25.112z" fill="#c5c0cc" stroke="#c5c0cc"/><path d="M1074.78 45.901l85.83 139.838 108.877-166.756z" fill="#ada7b4" stroke="#ada7b4"/><path d="M1269.488 18.982l-108.877 166.756 162.663 34.489z" fill="#adb4b5" stroke="#adb4b5"/><path d="M1269.488 18.982l53.786 201.245 76.486-94.534z" fill="#9ba7a7" stroke="#9ba7a7"/><path d="M1399.76 125.693l-76.486 94.534 144.661 3.574z" fill="#a0b4ab" stroke="#a0b4ab"/><path d="M1399.76 125.693l68.174 98.109 145.358-112.751z" fill="#8aa09a" stroke="#8aa09a"/><path d="M1613.293 111.05l-145.358 112.751 60.212 38.767z" fill="#8ea89f" stroke="#8ea89f"/><path d="M1613.293 111.05l-85.146 151.518 155.997-91.417z" fill="#819b95" stroke="#819b95"/><path d="M1613.293 111.05l70.85 60.101 6.344-135.465z" fill="#6a7f82" stroke="#6a7f82"/><path d="M1690.487 35.687l-6.344 135.465 242.732-80.815z" fill="#5b7077" stroke="#5b7077"/><path d="M1926.875 90.337l-242.732 80.815 204.513 111.758z" fill="#6a8182" stroke="#6a8182"/><path d="M1926.875 90.337l-38.219 192.573 166.86-73.095z" fill="#6d7779" stroke="#6d7779"/><path d="M1926.875 90.337l128.641 119.478 18.649-183.358z" fill="#5b5866" stroke="#5b5866"/><path d="M2074.165 26.457l-18.649 183.358 20.16 123.516z" fill="#6c6975" stroke="#6c6975"/><path d="M2074.165 26.457l1.511 306.874 1.963 324.097z" fill="#808e80" stroke="#808e80"/><path d="M-32.46 184.484l-51.647 218.631 180.668 14.555z" fill="#ba93c1" stroke="#ba93c1"/><path d="M-32.46 184.484l129.021 233.187 29.324-245.457z" fill="#b789c4" stroke="#b789c4"/><path d="M125.885 172.214l-29.324 245.457 116.508-25.448z" fill="#c4a7cd" stroke="#c4a7cd"/><path d="M125.885 172.214l87.183 220.008 50.767-216.201z" fill="#c09bcf" stroke="#c09bcf"/><path d="M263.836 176.021l-50.767 216.201 158.381-120.883z" fill="#caadd6" stroke="#caadd6"/><path d="M371.45 271.34l-158.381 120.883 215.935 13.074z" fill="#d5c2dc" stroke="#d5c2dc"/><path d="M371.45 271.34l57.553 133.957 58.119-8.603z" fill="#dccce3" stroke="#dccce3"/><path d="M371.45 271.34l115.672 125.354 77.045-136.98z" fill="#ddcae6" stroke="#ddcae6"/><path d="M564.167 259.714l-77.045 136.98 221.188 11.247z" fill="#e9dcec" stroke="#e9dcec"/><path d="M564.167 259.714l144.143 148.227-12.549-239.952z" fill="#e8d4ee" stroke="#e8d4ee"/><path d="M695.761 167.989l12.549 239.952 84.073-178.28z" fill="#ecd8f1" stroke="#ecd8f1"/><path d="M792.383 229.661l-84.073 178.28 147.64-45.337z" fill="#f1ecf1" stroke="#f1ecf1"/><path d="M792.383 229.661l63.567 132.943 79.489-151.754z" fill="#e8e0eb" stroke="#e8e0eb"/><path d="M935.439 210.85l-79.489 151.754 67.911-6.896z" fill="#ebedeb" stroke="#ebedeb"/><path d="M935.439 210.85l-11.578 144.858 236.75-169.97z" fill="#dedfe1" stroke="#dedfe1"/><path d="M1160.611 185.738l-236.75 169.97 241.036 65.792z" fill="#deeddc" stroke="#deeddc"/><path d="M1160.611 185.738l4.286 235.762 158.377-201.273z" fill="#cadccc" stroke="#cadccc"/><path d="M1323.274 220.227l-158.377 201.273 105.764 5.691z" fill="#cae7c8" stroke="#cae7c8"/><path d="M1323.274 220.227l-52.613 206.964 207.81 4.786z" fill="#baddba" stroke="#baddba"/><path d="M1323.274 220.227l155.197 211.75-10.537-208.176z" fill="#abccb1" stroke="#abccb1"/><path d="M1467.935 223.802l10.537 208.176 49.675-169.409z" fill="#a3c8ab" stroke="#a3c8ab"/><path d="M1528.146 262.569l-49.675 169.409 147.584-90.905z" fill="#9fcaa7" stroke="#9fcaa7"/><path d="M1528.146 262.569l97.909 78.504 58.087-169.921z" fill="#8daf9e" stroke="#8daf9e"/><path d="M1684.143 171.152l-58.087 169.921 90.651 32.551z" fill="#89b19a" stroke="#89b19a"/><path d="M1684.143 171.152l32.564 202.472 171.949-90.714z" fill="#7ca292" stroke="#7ca292"/><path d="M1888.656 282.91l-171.949 90.714 211.646 28.593z" fill="#80a88d" stroke="#80a88d"/><path d="M1888.656 282.91l39.697 119.307 147.323-68.885z" fill="#809b82" stroke="#809b82"/><path d="M1888.656 282.91l187.02 50.421-20.16-123.516z" fill="#79877e" stroke="#79877e"/><path d="M-84.107 403.116l-8.891 307.704 25.528-237.866z" fill="#a089a3" stroke="#a089a3"/><path d="M-84.107 403.116l16.637 69.838 164.031-55.283z" fill="#b992be" stroke="#b992be"/><path d="M96.561 417.671l-164.031 55.283 93.139 45.596z" fill="#b797bb" stroke="#b797bb"/><path d="M96.561 417.671l-70.892 100.879 166.734 33.257z" fill="#b6a4bb" stroke="#b6a4bb"/><path d="M96.561 417.671l95.842 134.135 20.666-159.584z" fill="#c5adcc" stroke="#c5adcc"/><path d="M213.068 392.223l-20.666 159.584 154.522-27.339z" fill="#c3b9c9" stroke="#c3b9c9"/><path d="M213.068 392.223l133.856 132.245 82.078-119.171z" fill="#d4c2da" stroke="#d4c2da"/><path d="M429.003 405.297l-82.078 119.171 170.448-52.507z" fill="#d8cddd" stroke="#d8cddd"/><path d="M429.003 405.297l88.369 66.664-30.251-75.267z" fill="#e1d2e6" stroke="#e1d2e6"/><path d="M487.122 396.694l30.251 75.267 190.938-64.02z" fill="#e8dbeb" stroke="#e8dbeb"/><path d="M708.31 407.941l-190.938 64.02 209.367 108.593z" fill="#e4e3e4" stroke="#e4e3e4"/><path d="M708.31 407.941l18.429 172.613 157.838-12.332z" fill="#e0eddc" stroke="#e0eddc"/><path d="M708.31 407.941l176.267 160.281-28.628-205.618z" fill="#f0efee" stroke="#f0efee"/><path d="M855.95 362.604l28.628 205.618 46.75-75.225z" fill="#e7f4e4" stroke="#e7f4e4"/><path d="M855.95 362.604l75.377 130.393-7.467-137.289z" fill="#eef4eb" stroke="#eef4eb"/><path d="M923.861 355.708l7.467 137.289 164.23-18.697z" fill="#eaf7e5" stroke="#eaf7e5"/><path d="M923.861 355.708l171.696 118.592 69.34-52.8z" fill="#e1f3dd" stroke="#e1f3dd"/><path d="M1164.897 421.501l-69.34 52.8 145.525 61.329z" fill="#cfefca" stroke="#cfefca"/><path d="M1164.897 421.501l76.185 114.128 29.579-108.437z" fill="#cbebc7" stroke="#cbebc7"/><path d="M1270.661 427.192l-29.579 108.437 226.426-3.449z" fill="#b2e1b0" stroke="#b2e1b0"/><path d="M1270.661 427.192l196.848 104.989 10.962-100.203z" fill="#aedaaf" stroke="#aedaaf"/><path d="M1478.471 431.977l-10.962 100.203 48.271 45.027z" fill="#96d199" stroke="#96d199"/><path d="M1478.471 431.977l37.309 145.23 188.518-66.819z" fill="#8dc894" stroke="#8dc894"/><path d="M1478.471 431.977l225.827 78.411-78.243-169.316z" fill="#97c4a1" stroke="#97c4a1"/><path d="M1626.056 341.073l78.243 169.316 12.409-136.765z" fill="#8dbb9a" stroke="#8dbb9a"/><path d="M1716.707 373.624l-12.409 136.765 224.055-108.172z" fill="#80b091" stroke="#80b091"/><path d="M1928.353 402.217l-224.055 108.172 179.938 73.769z" fill="#73aa7e" stroke="#73aa7e"/><path d="M1928.353 402.217l-44.117 181.94 155.532-60.21z" fill="#729d73" stroke="#729d73"/><path d="M1928.353 402.217l111.415 121.731 35.908-190.616z" fill="#80957f" stroke="#80957f"/><path d="M2075.676 333.331l-35.908 190.616 37.871 133.481z" fill="#71906f" stroke="#71906f"/><path d="M-67.47 472.954l-25.528 237.866 118.667-192.27z" fill="#988d9b" stroke="#988d9b"/><path d="M25.669 518.55l-118.667 192.27 221.974-22.219z" fill="#808788" stroke="#808788"/><path d="M25.669 518.55l103.307 170.051 63.427-136.794z" fill="#9ca0a2" stroke="#9ca0a2"/><path d="M192.402 551.806l-63.427 136.794 106.774-29.558z" fill="#8ea098" stroke="#8ea098"/><path d="M192.402 551.806l43.347 107.236 111.175-134.575z" fill="#aab6b0" stroke="#aab6b0"/><path d="M346.925 524.468l-111.175 134.575 164.992-7.076z" fill="#a2b6aa" stroke="#a2b6aa"/><path d="M346.925 524.468l53.817 127.499 116.631-180.005z" fill="#c2ccc6" stroke="#c2ccc6"/><path d="M517.373 471.961l-116.631 180.005 75.678 62.806z" fill="#adc5b4" stroke="#adc5b4"/><path d="M517.373 471.961l-40.952 242.812 250.319-134.219z" fill="#bfd5c2" stroke="#bfd5c2"/><path d="M726.74 580.554l-250.319 134.219 241.711-48.453z" fill="#abceb0" stroke="#abceb0"/><path d="M726.74 580.554l-8.609 85.766 147.159 18.336z" fill="#b3dbb5" stroke="#b3dbb5"/><path d="M726.74 580.554l138.55 104.102 19.287-116.434z" fill="#bfe5be" stroke="#bfe5be"/><path d="M884.578 568.222l-19.287 116.434 166.255 19.433z" fill="#abe2ab" stroke="#abe2ab"/><path d="M884.578 568.222l146.967 135.867-100.217-211.091z" fill="#c5f1c0" stroke="#c5f1c0"/><path d="M931.327 492.997l100.217 211.091 64.013-229.788z" fill="#caf5c4" stroke="#caf5c4"/><path d="M1095.557 474.301l-64.013 229.788 53.437-1.142z" fill="#a8e4a6" stroke="#a8e4a6"/><path d="M1095.557 474.301l-10.576 228.646 156.101-167.318z" fill="#b8edb3" stroke="#b8edb3"/><path d="M1241.082 535.629l-156.101 167.318 244.746-64.95z" fill="#99dd97" stroke="#99dd97"/><path d="M1241.082 535.629l88.645 102.368 137.782-105.816z" fill="#9cdd99" stroke="#9cdd99"/><path d="M1467.509 532.18l-137.782 105.816 37.113 9.573z" fill="#86d287" stroke="#86d287"/><path d="M1467.509 532.18l-100.668 115.39 148.939-70.363z" fill="#84d087" stroke="#84d087"/><path d="M1515.78 577.207l-148.939 70.363 201.457 63.617z" fill="#68bf6f" stroke="#68bf6f"/><path d="M1515.78 577.207l52.518 133.979 136-200.798z" fill="#6cbd75" stroke="#6cbd75"/><path d="M1704.298 510.388l-136 200.798 185.599 4.937z" fill="#4eaa5f" stroke="#4eaa5f"/><path d="M1704.298 510.388l49.598 205.736 130.34-131.967z" fill="#52a763" stroke="#52a763"/><path d="M1884.236 584.157l-130.34 131.967 158.478-4.091z" fill="#369147" stroke="#369147"/><path d="M1884.236 584.157l28.139 127.876 165.265-54.604z" fill="#3e8944" stroke="#3e8944"/><path d="M1884.236 584.157l193.403 73.272-37.871-133.481z" fill="#589256" stroke="#589256"/><path d="M-92.999 710.82l40.772 261.086 23.933-139.877z" fill="#374551" stroke="#374551"/><path d="M-92.999 710.82l64.705 121.21 61.618-25.503z" fill="#4b5860" stroke="#4b5860"/><path d="M-92.999 710.82l126.323 95.706 95.651-117.925z" fill="#5e6e6f" stroke="#5e6e6f"/><path d="M128.975 688.601l-95.651 117.925 156.865 30.163z" fill="#57706e" stroke="#57706e"/><path d="M128.975 688.601l61.214 148.089 45.56-177.647z" fill="#6c887e" stroke="#6c887e"/><path d="M235.749 659.043l-45.56 177.647 159.752 10.31z" fill="#618378" stroke="#618378"/><path d="M235.749 659.043l114.192 187.957 50.8-195.033z" fill="#7b9c8b" stroke="#7b9c8b"/><path d="M400.742 651.966l-50.8 195.033 126.479-132.226z" fill="#7c9f8d" stroke="#7c9f8d"/><path d="M476.42 714.773l-126.479 132.226 159.572-34.194z" fill="#6d9484" stroke="#6d9484"/><path d="M476.42 714.773l33.093 98.033 181.876-37.659z" fill="#7ea790" stroke="#7ea790"/><path d="M476.42 714.773l214.969 60.374 26.741-108.827z" fill="#93bb9f" stroke="#93bb9f"/><path d="M718.131 666.32l-26.741 108.827 90.466 61.512z" fill="#8db99a" stroke="#8db99a"/><path d="M718.131 666.32l63.724 170.338 83.434-152.002z" fill="#95c59e" stroke="#95c59e"/><path d="M865.29 684.656l-83.434 152.002 196.961 16.59z" fill="#7eb98c" stroke="#7eb98c"/><path d="M865.29 684.656l113.526 168.593 52.728-149.16z" fill="#8aca92" stroke="#8aca92"/><path d="M1031.545 704.089l-52.728 149.16 93.846 8.238z" fill="#70b67e" stroke="#70b67e"/><path d="M1031.545 704.089l41.118 157.398 12.319-158.54z" fill="#7cc385" stroke="#7cc385"/><path d="M1084.982 702.947l-12.319 158.54 185.763.795z" fill="#63b172" stroke="#63b172"/><path d="M1084.982 702.947l173.444 159.335 71.302-224.285z" fill="#71c178" stroke="#71c178"/><path d="M1329.727 637.997l-71.302 224.285 108.415-214.712z" fill="#68be70" stroke="#68be70"/><path d="M1366.841 647.57l-108.415 214.712 161.119 2.434z" fill="#4ba55c" stroke="#4ba55c"/><path d="M1366.841 647.57l52.704 217.145 99.928-85.369z" fill="#46a556" stroke="#46a556"/><path d="M1366.841 647.57l152.632 131.776 48.825-68.16z" fill="#50ae5d" stroke="#50ae5d"/><path d="M1568.298 711.186l-48.825 68.16 183.503 52.998z" fill="#2d9045" stroke="#2d9045"/><path d="M1568.298 711.186l134.678 121.158 50.921-116.221z" fill="#2a8d44" stroke="#2a8d44"/><path d="M1753.897 716.124l-50.921 116.221 226.109-34.152z" fill="#127733" stroke="#127733"/><path d="M1753.897 716.124l175.188 82.069-16.71-86.16z" fill="#1f7b35" stroke="#1f7b35"/><path d="M1912.375 712.033l16.71 86.16 148.555-140.764z" fill="#267430" stroke="#267430"/><path d="M2077.639 657.429l-148.555 140.764 96.522 70.945z" fill="#156123" stroke="#156123"/><path d="M2077.639 657.429l-52.032 211.709-1.418 60.032z" fill="#075119" stroke="#075119"/><path d="M-28.294 832.029l-23.933 139.877 124.829-12.148z" fill="#3b3544" stroke="#3b3544"/><path d="M-28.294 832.029l100.896 127.729-39.278-153.232z" fill="#3d4952" stroke="#3d4952"/><path d="M33.324 806.526l39.278 153.232 117.587-123.069z" fill="#425358" stroke="#425358"/><path d="M190.189 836.689l-117.587 123.069 143.431 66.213z" fill="#47474f" stroke="#47474f"/><path d="M190.189 836.689l25.844 189.282 133.908-178.972z" fill="#4e5f5d" stroke="#4e5f5d"/><path d="M349.941 846.999l-133.908 178.972 127.545-7.566z" fill="#52535b" stroke="#52535b"/><path d="M349.941 846.999l-6.363 171.406 131.721-61.931z" fill="#5a6361" stroke="#5a6361"/><path d="M349.941 846.999l125.357 109.475 34.215-143.669z" fill="#5e7d72" stroke="#5e7d72"/><path d="M509.513 812.806l-34.215 143.669 185.805-2.675z" fill="#677d70" stroke="#677d70"/><path d="M509.513 812.806l151.59 140.994 30.286-178.653z" fill="#6c9682" stroke="#6c9682"/><path d="M691.39 775.146l-30.286 178.653 120.752-117.141z" fill="#739c84" stroke="#739c84"/><path d="M781.856 836.658l-120.752 117.141 116.586-31.523z" fill="#739079" stroke="#739079"/><path d="M781.856 836.658l-4.167 85.618 201.127-69.027z" fill="#70a07c" stroke="#70a07c"/><path d="M978.817 853.249l-201.127 69.027 232.91 8.494z" fill="#6e9c71" stroke="#6e9c71"/><path d="M978.817 853.249l31.782 77.521 62.064-69.284z" fill="#66a16e" stroke="#66a16e"/><path d="M1072.663 861.486l-62.064 69.284 108.779 16.461z" fill="#619662" stroke="#619662"/><path d="M1072.663 861.486l46.714 85.745 139.049-84.949z" fill="#58995e" stroke="#58995e"/><path d="M1258.426 862.282l-139.049 84.949 213.68 83.443z" fill="#4d834b" stroke="#4d834b"/><path d="M1258.426 862.282l74.631 168.392 81.567-34.794z" fill="#3e753e" stroke="#3e753e"/><path d="M1258.426 862.282l156.199 133.598 4.921-131.165z" fill="#398240" stroke="#398240"/><path d="M1419.545 864.715l-4.921 131.165 105.619-25.605z" fill="#2c7030" stroke="#2c7030"/><path d="M1419.545 864.715l100.699 105.56-.771-190.929z" fill="#27803a" stroke="#27803a"/><path d="M1519.473 779.346l.771 190.929 182.732-137.931z" fill="#1b7934" stroke="#1b7934"/><path d="M1702.976 832.344l-182.732 137.931 248.894 26.011z" fill="#105b1d" stroke="#105b1d"/><path d="M1702.976 832.344l66.162 163.942 54.173-22.303z" fill="#024f14" stroke="#024f14"/><path d="M1702.976 832.344l120.335 141.639 105.774-175.791z" fill="#005c1d" stroke="#005c1d"/><path d="M1929.085 798.193l-105.774 175.791 200.878-44.813z" fill="#00470d" stroke="#00470d"/><path d="M1929.085 798.193l95.104 130.977 1.418-60.032z" fill="#00490f" stroke="#00490f"/><path d="M-52.226 971.906l268.26 54.065-143.431-66.213z" fill="#412f48" stroke="#412f48"/><path d="M216.033 1025.972l1117.024 4.702-989.479-12.269z" fill="#6d6470" stroke="#6d6470"/><path d="M343.578 1018.405l989.479 12.269-671.954-76.874z" fill="#727772" stroke="#727772"/><path d="M343.578 1018.405l317.525-64.606-185.805 2.675z" fill="#626568" stroke="#626568"/><path d="M661.103 953.799l671.954 76.874-322.458-99.904z" fill="#688865" stroke="#688865"/><path d="M661.103 953.799l349.495-23.029-232.91-8.494z" fill="#718c70" stroke="#718c70"/><path d="M1010.599 930.77l322.458 99.904-213.68-83.443z" fill="#588255" stroke="#588255"/><path d="M1333.057 1030.674l436.081-34.387-354.514-.406z" fill="#25572b" stroke="#25572b"/><path d="M1414.624 995.88l354.514.406-248.894-26.011z" fill="#1c5625" stroke="#1c5625"/><path d="M1769.138 996.287l255.051-67.116-200.878 44.813z" fill="#003a0b" stroke="#003a0b"/></svg>